<svg width="18" height="19" viewBox="0 0 18 19" fill="none" xmlns="http://www.w3.org/2000/svg">
<path d="M6.82716 5.66564C5.53492 5.66564 4.33738 6.06218 3.35408 6.73754V1.76324H0.5V17.2126H3.35408V16.4455C4.33738 17.1207 5.53492 17.5174 6.82716 17.5174C10.1708 17.5174 12.8812 14.8644 12.8812 11.5916C12.8812 8.31884 10.1706 5.66564 6.82716 5.66564ZM6.55536 14.9292C4.73239 14.9292 3.25459 13.4337 3.25459 11.5891C3.25459 9.74444 4.73239 8.249 6.55536 8.249C8.37834 8.249 9.85613 9.74444 9.85613 11.5891C9.85613 13.4337 8.37834 14.9292 6.55536 14.9292ZM16.3584 0.5H17.5V18.5H16.3584V0.5Z" fill="black" stroke="black" stroke-miterlimit="10"/>
</svg>
