<svg viewBox="0 0 24 22" fill="none" xmlns="http://www.w3.org/2000/svg">
<path d="M6.5 4.28767V5.28767C6.85508 5.28767 7.18354 5.09937 7.36296 4.79295L6.5 4.28767ZM8.425 1V0C8.06992 0 7.74146 0.188298 7.56204 0.494721L8.425 1ZM15.575 1L16.438 0.494721C16.2585 0.188299 15.9301 0 15.575 0V1ZM17.5 4.28767L16.637 4.79295C16.8165 5.09937 17.1449 5.28767 17.5 5.28767V4.28767ZM1 18.2603H2V7.0274H1H0V18.2603H1ZM3.75 4.28767V5.28767H6.5V4.28767V3.28767H3.75V4.28767ZM6.5 4.28767L7.36296 4.79295L9.28796 1.50528L8.425 1L7.56204 0.494721L5.63704 3.78239L6.5 4.28767ZM8.425 1V2H15.575V1V0H8.425V1ZM15.575 1L14.712 1.50528L16.637 4.79295L17.5 4.28767L18.363 3.78239L16.438 0.494721L15.575 1ZM17.5 4.28767V5.28767H20.25V4.28767V3.28767H17.5V4.28767ZM23 7.0274H22V18.2603H23H24V7.0274H23ZM23 18.2603H22C22 19.2176 21.22 20 20.25 20V21V22C22.3175 22 24 20.3292 24 18.2603H23ZM20.25 4.28767V5.28767C21.22 5.28767 22 6.0701 22 7.0274H23H24C24 4.95848 22.3175 3.28767 20.25 3.28767V4.28767ZM1 7.0274H2C2 6.0701 2.77997 5.28767 3.75 5.28767V4.28767V3.28767C1.68247 3.28767 0 4.95848 0 7.0274H1ZM3.75 21V20C2.77997 20 2 19.2176 2 18.2603H1H0C0 20.3292 1.68246 22 3.75 22V21ZM16.125 11.9589H15.125C15.125 13.6728 13.7294 15.0685 12 15.0685V16.0685V17.0685C14.8269 17.0685 17.125 14.7844 17.125 11.9589H16.125ZM12 16.0685V15.0685C10.2706 15.0685 8.875 13.6728 8.875 11.9589H7.875H6.875C6.875 14.7844 9.17307 17.0685 12 17.0685V16.0685ZM7.875 11.9589H8.875C8.875 10.2451 10.2706 8.84932 12 8.84932V7.84932V6.84932C9.17307 6.84932 6.875 9.13343 6.875 11.9589H7.875ZM12 7.84932V8.84932C13.7294 8.84932 15.125 10.2451 15.125 11.9589H16.125H17.125C17.125 9.13343 14.8269 6.84932 12 6.84932V7.84932ZM20.25 21V20H3.75V21V22H20.25V21Z" fill="#424242"/>
</svg>
