<svg xmlns="http://www.w3.org/2000/svg" width="36" height="36" viewBox="0 0 36 36" fill="none">
  <path d="M34.5 28.5C34.5 29.2956 34.1839 30.0587 33.6213 30.6213C33.0587 31.1839 32.2956 31.5 31.5 31.5H4.5C3.70435 31.5 2.94129 31.1839 2.37868 30.6213C1.81607 30.0587 1.5 29.2956 1.5 28.5V12C1.5 11.2044 1.81607 10.4413 2.37868 9.87868C2.94129 9.31607 3.70435 9 4.5 9H10.5L13.5 4.5H22.5L25.5 9H31.5C32.2956 9 33.0587 9.31607 33.6213 9.87868C34.1839 10.4413 34.5 11.2044 34.5 12V28.5Z" stroke="currentColor" stroke-width="3" stroke-linecap="round" stroke-linejoin="round"/>
  <path d="M18 25.5C21.3137 25.5 24 22.8137 24 19.5C24 16.1863 21.3137 13.5 18 13.5C14.6863 13.5 12 16.1863 12 19.5C12 22.8137 14.6863 25.5 18 25.5Z" stroke="currentColor" stroke-width="3" stroke-linecap="round" stroke-linejoin="round"/>
</svg>
