<svg width="18" height="18" viewBox="0 0 20 20" fill="none" xmlns="http://www.w3.org/2000/svg">
<path d="M14.7332 17.2538C16.4904 16.0902 17.7834 14.3468 18.387 12.3276C18.9906 10.3083 18.8664 8.14132 18.0361 6.20425C17.2058 4.26718 15.722 2.68292 13.8435 1.72765C11.9649 0.772374 9.81061 0.506664 7.7562 0.976837M14.7332 17.2538V13.7538M14.7332 17.2538H18.2562M4.7562 2.26984C3.0051 3.43774 1.71874 5.18246 1.1208 7.20057C0.522856 9.21869 0.651166 11.3826 1.48341 13.3159C2.31566 15.2492 3.7992 16.8296 5.67605 17.7824C7.5529 18.7352 9.70432 19 11.7562 18.5308M4.7562 2.26984V5.75384M4.7562 2.26984H1.2562" stroke="#141414" stroke-width="1.5" stroke-linecap="round" stroke-linejoin="round"/>
</svg>
