<svg width="20" height="20" viewBox="0 0 20 20" fill="none" xmlns="http://www.w3.org/2000/svg">
<path d="M13.3334 17.5V15.8333C13.3334 14.9493 12.9822 14.1014 12.357 13.4763C11.7319 12.8512 10.8841 12.5 10 12.5H5.00002C4.11597 12.5 3.26812 12.8512 2.643 13.4763C2.01788 14.1014 1.66669 14.9493 1.66669 15.8333V17.5" stroke="currentColor" stroke-width="2" stroke-linecap="round" stroke-linejoin="round"/>
<path d="M13.3333 2.60645C14.0481 2.79175 14.6811 3.20917 15.133 3.79316C15.585 4.37716 15.8301 5.09469 15.8301 5.83311C15.8301 6.57154 15.585 7.28906 15.133 7.87306C14.6811 8.45706 14.0481 8.87447 13.3333 9.05978" stroke="currentColor" stroke-width="2" stroke-linecap="round" stroke-linejoin="round"/>
<path d="M18.3333 17.5001V15.8334C18.3328 15.0948 18.0869 14.3774 17.6345 13.7937C17.182 13.2099 16.5484 12.793 15.8333 12.6084" stroke="currentColor" stroke-width="2" stroke-linecap="round" stroke-linejoin="round"/>
<path d="M7.50002 9.16667C9.34097 9.16667 10.8334 7.67428 10.8334 5.83333C10.8334 3.99238 9.34097 2.5 7.50002 2.5C5.65907 2.5 4.16669 3.99238 4.16669 5.83333C4.16669 7.67428 5.65907 9.16667 7.50002 9.16667Z" stroke="currentColor" stroke-width="2" stroke-linecap="round" stroke-linejoin="round"/>
</svg>
