<svg width="18" height="18" viewBox="0 0 18 18" fill="none" xmlns="http://www.w3.org/2000/svg">
<g clip-path="url(#clip0_913_570)">
<path d="M18 9C18 4.02948 13.9705 0 9 0C4.02948 0 0 4.02948 0 9C0 13.2206 2.90592 16.7623 6.82596 17.735V11.7504H4.97016V9H6.82596V7.81488C6.82596 4.75164 8.21232 3.3318 11.2198 3.3318C11.79 3.3318 12.7739 3.44376 13.1764 3.55536V6.04836C12.964 6.02604 12.595 6.01488 12.1367 6.01488C10.661 6.01488 10.0908 6.57396 10.0908 8.02728V9H13.0306L12.5255 11.7504H10.0908V17.9341C14.5472 17.3959 18.0004 13.6015 18.0004 9H18Z" fill="black"/>
<path d="M12.5251 11.7504L13.0302 8.99999H10.0904V8.02727C10.0904 6.57395 10.6607 6.01487 12.1363 6.01487C12.5946 6.01487 12.9636 6.02603 13.176 6.04835V3.55535C12.7735 3.44339 11.7896 3.33179 11.2194 3.33179C8.21195 3.33179 6.82559 4.75163 6.82559 7.81487V8.99999H4.96979V11.7504H6.82559V17.735C7.52183 17.9078 8.25011 18 8.99963 18C9.36863 18 9.73259 17.9773 10.0901 17.9341V11.7504H12.5247H12.5251Z" fill="white"/>
</g>
<defs>
<clipPath id="clip0_913_570">
<rect width="18" height="18" fill="white"/>
</clipPath>
</defs>
</svg>
