<svg width="18" height="21" viewBox="0 0 21 21" fill="none" xmlns="http://www.w3.org/2000/svg">
<path d="M16.0026 7.31137C15.6426 6.90137 15.2726 6.49137 14.8826 6.10137L14.5926 5.83137L14.7326 5.71137C15.2216 5.29158 15.5701 4.73188 15.7311 4.10781C15.892 3.48373 15.8576 2.8253 15.6326 2.22137C15.3065 1.54034 14.7902 0.9683 14.146 0.57435C13.5019 0.1804 12.7574 -0.0186068 12.0026 0.00136895V2.00137C12.3584 1.99642 12.7091 2.08648 13.0185 2.26226C13.3278 2.43805 13.5847 2.69319 13.7626 3.00137C13.9326 3.40137 13.7626 3.84137 13.2926 4.31137C13.2226 4.39137 13.1426 4.44137 13.0726 4.51137C10.0726 2.10137 6.78261 0.741369 5.17261 2.35137C5.00453 2.52424 4.86602 2.72356 4.76261 2.94137V3.04137L4.58261 3.57137L0.172606 16.6714C0.00579676 17.165 -0.0409968 17.6913 0.0361016 18.2067C0.1132 18.722 0.311971 19.2116 0.615952 19.6348C0.919933 20.058 1.32037 20.4027 1.78411 20.6404C2.24784 20.878 2.76153 21.0018 3.28261 21.0014C3.62286 20.9982 3.96043 20.9408 4.28261 20.8314L18.0026 16.2814C18.1712 16.2186 18.3198 16.1115 18.4326 15.9714L18.6426 15.7914C20.0726 14.3514 19.1526 11.5814 17.2326 8.89137C18.3727 8.22602 19.6854 7.91613 21.0026 8.00137V6.00137C19.24 5.90439 17.4913 6.36255 16.0026 7.31137ZM3.70261 18.9314C3.47561 19.0065 3.23221 19.0171 2.99956 18.9619C2.76691 18.9067 2.55417 18.7879 2.3851 18.6189C2.21603 18.4498 2.09728 18.2371 2.04209 18.0044C1.98691 17.7718 1.99748 17.5284 2.07261 17.3014L3.43261 13.2014C4.40319 15.0523 5.89456 16.5784 7.72261 17.5914L3.70261 18.9314ZM10.7026 16.6014C9.19133 16.2011 7.81269 15.4086 6.70634 14.304C5.59999 13.1994 4.80524 11.822 4.40261 10.3114L5.40261 7.31137L5.46261 7.40137C5.57261 7.62137 5.71261 7.85137 5.85261 8.08137C5.99261 8.31137 6.01261 8.37137 6.11261 8.52137C6.21261 8.67137 6.44261 9.00137 6.62261 9.25137C6.80261 9.50137 6.81261 9.53137 6.92261 9.67137C7.03261 9.81137 7.35261 10.2214 7.58261 10.4914L7.87261 10.8414C8.21261 11.2314 8.57261 11.6114 8.95261 12.0014C9.33261 12.3914 9.63261 12.6414 9.95261 13.0014L10.2826 13.2814L11.0626 13.9114L11.4326 14.1914C11.7126 14.3914 11.9826 14.5914 12.2626 14.7714L12.5726 14.9714C12.9326 15.1914 13.2926 15.4014 13.6426 15.5814H13.6926L10.7026 16.6014ZM17.2126 14.3714H17.1526C16.4626 14.7514 13.5926 13.8014 10.3626 10.5614C10.0226 10.2214 9.70261 9.89137 9.41261 9.56137L9.12261 9.21137L8.59261 8.57137L8.30261 8.17137C8.17261 7.98137 8.03261 7.80137 7.91261 7.62137L7.65261 7.20137L7.36261 6.73137C7.28261 6.59137 7.22261 6.46137 7.15261 6.33137C7.08261 6.20137 7.00261 6.07137 6.94261 5.93137C6.88825 5.8145 6.84149 5.69425 6.80261 5.57137C6.75261 5.44137 6.69261 5.31137 6.65261 5.19137C6.61261 5.07137 6.60261 5.00137 6.57261 4.88137C6.54261 4.76137 6.52261 4.66137 6.50261 4.56137C6.49697 4.47479 6.49697 4.38794 6.50261 4.30137C6.49297 4.22166 6.49297 4.14108 6.50261 4.06137L6.61261 3.75137C6.97261 3.39137 8.84261 3.75137 11.3426 5.65137C10.919 5.84318 10.4659 5.96153 10.0026 6.00137V8.00137C11.0648 7.94027 12.0954 7.61734 13.0026 7.06137L13.4826 7.52137C13.9026 7.94137 14.2926 8.37137 14.6626 8.80137C14.0902 9.83649 13.8791 11.0328 14.0626 12.2014L16.0626 11.8114C16.0042 11.4403 16.0042 11.0624 16.0626 10.6914C16.3688 11.1536 16.6395 11.6383 16.8726 12.1414C17.4326 13.4614 17.3926 14.2014 17.2126 14.3714Z" fill="#141414"/>
</svg>
