<svg viewBox="0 0 13 11" fill="none" xmlns="http://www.w3.org/2000/svg">
<path d="M11.5003 6.27953L7.5169 10.1042C7.2528 10.3576 6.89466 10.5 6.52123 10.5C6.14779 10.5 5.78965 10.3576 5.52555 10.1042L1.54214 6.28021C1.21285 5.96686 0.951285 5.59416 0.772446 5.18351C0.593608 4.77286 0.501024 4.33234 0.500008 3.88725C0.498993 3.44216 0.589567 3.00126 0.76653 2.58986C0.943493 2.17846 1.20336 1.80466 1.53121 1.48994C1.85906 1.17521 2.24844 0.925741 2.677 0.755861C3.10555 0.585982 3.56484 0.499033 4.02849 0.500008C4.49214 0.500983 4.95103 0.589861 5.3788 0.761541C5.80657 0.933221 6.19481 1.18432 6.52123 1.50042C7.18423 0.879797 8.07526 0.534913 9.00128 0.540483C9.9273 0.546053 10.8138 0.901628 11.4686 1.53018C12.1235 2.15874 12.494 3.00966 12.4999 3.89861C12.5059 4.78757 12.1467 5.64297 11.5003 6.27953Z" stroke="#9E9E9E" stroke-linecap="round" stroke-linejoin="round"/>
</svg>
