<svg width="40" height="40" viewBox="0 0 40 40" fill="none" xmlns="http://www.w3.org/2000/svg">
<path d="M31.379 37.582C30.826 37.582 30.379 37.135 30.379 36.582V7.91602C30.379 7.36302 30.826 6.91602 31.379 6.91602C31.932 6.91602 32.379 7.36302 32.379 7.91602V36.582C32.379 37.135 31.932 37.582 31.379 37.582Z" fill="#333D4B"/>
<path d="M8.604 37.582C8.051 37.582 7.604 37.135 7.604 36.582V7.91602C7.604 7.36302 8.051 6.91602 8.604 6.91602C9.157 6.91602 9.604 7.36302 9.604 7.91602V36.582C9.604 37.135 9.157 37.582 8.604 37.582Z" fill="#333D4B"/>
<path d="M31.379 7.91597C32.6211 7.91597 33.628 6.90906 33.628 5.66697C33.628 4.42488 32.6211 3.41797 31.379 3.41797C30.1369 3.41797 29.13 4.42488 29.13 5.66697C29.13 6.90906 30.1369 7.91597 31.379 7.91597Z" fill="#EF4452"/>
<path d="M8.60502 7.91597C9.84711 7.91597 10.854 6.90906 10.854 5.66697C10.854 4.42488 9.84711 3.41797 8.60502 3.41797C7.36293 3.41797 6.35602 4.42488 6.35602 5.66697C6.35602 6.90906 7.36293 7.91597 8.60502 7.91597Z" fill="#EF4452"/>
<path d="M35.71 9.22998H4.30603C3.28927 9.22998 2.46503 10.0542 2.46503 11.071V15.936C2.46503 16.9527 3.28927 17.777 4.30603 17.777H35.71C36.7268 17.777 37.551 16.9527 37.551 15.936V11.071C37.551 10.0542 36.7268 9.22998 35.71 9.22998Z" fill="#FFCA00"/>
<path d="M19.288 9.22998L15.505 17.776H21.066L24.849 9.22998H19.288Z" fill="#11202E"/>
<path d="M29.797 9.22998L26.014 17.776H31.575L35.358 9.22998H29.797Z" fill="#11202E"/>
<path d="M8.77806 9.22998L4.99506 17.776H10.5561L14.3391 9.22998H8.77806Z" fill="#11202E"/>
<path d="M35.71 21.4399H4.30603C3.28927 21.4399 2.46503 22.2642 2.46503 23.2809V28.1459C2.46503 29.1627 3.28927 29.9869 4.30603 29.9869H35.71C36.7268 29.9869 37.551 29.1627 37.551 28.1459V23.2809C37.551 22.2642 36.7268 21.4399 35.71 21.4399Z" fill="#FFCA00"/>
<path d="M19.288 21.4399L15.505 29.9869H21.066L24.849 21.4399H19.288Z" fill="#11202E"/>
<path d="M29.797 21.4399L26.014 29.9869H31.575L35.358 21.4399H29.797Z" fill="#11202E"/>
<path d="M8.77806 21.4399L4.99506 29.9869H10.5561L14.3391 21.4399H8.77806Z" fill="#11202E"/>
</svg>
