<svg width="16" height="16" viewBox="0 0 16 16" fill="none" xmlns="http://www.w3.org/2000/svg">
<path d="M3.55556 8C3.55556 8.53043 3.36825 9.03914 3.03486 9.41421C2.70146 9.78929 2.24927 10 1.77778 10C1.30628 10 0.854097 9.78929 0.520699 9.41421C0.187301 9.03914 0 8.53043 0 8C0 7.46957 0.187301 6.96086 0.520699 6.58579C0.854097 6.21071 1.30628 6 1.77778 6C2.24927 6 2.70146 6.21071 3.03486 6.58579C3.36825 6.96086 3.55556 7.46957 3.55556 8ZM9.77778 8C9.77778 8.53043 9.59048 9.03914 9.25708 9.41421C8.92368 9.78929 8.4715 10 8 10C7.5285 10 7.07632 9.78929 6.74292 9.41421C6.40952 9.03914 6.22222 8.53043 6.22222 8C6.22222 7.46957 6.40952 6.96086 6.74292 6.58579C7.07632 6.21071 7.5285 6 8 6C8.4715 6 8.92368 6.21071 9.25708 6.58579C9.59048 6.96086 9.77778 7.46957 9.77778 8ZM16 8C16 8.53043 15.8127 9.03914 15.4793 9.41421C15.1459 9.78929 14.6937 10 14.2222 10C13.7507 10 13.2985 9.78929 12.9651 9.41421C12.6317 9.03914 12.4444 8.53043 12.4444 8C12.4444 7.46957 12.6317 6.96086 12.9651 6.58579C13.2985 6.21071 13.7507 6 14.2222 6C14.6937 6 15.1459 6.21071 15.4793 6.58579C15.8127 6.96086 16 7.46957 16 8Z" fill="#9E9E9E"/>
</svg>
