<svg width="52" height="20" viewBox="0 0 52 20" fill="none" xmlns="http://www.w3.org/2000/svg">
<path d="M32.2284 11.5905V14.4632H31.2149V12.4861H25.8606V11.5905H28.5882V10.3822H25.3499V9.48669H32.83V10.3822H29.5916V11.5905H32.2284ZM32.2284 6.3728V8.83038H31.2149V7.27855H25.9515V6.3728H32.2264H32.2284Z" fill="#575756"/>
<path d="M36.5489 6.2604L38.8202 12.9666L37.9722 13.3183L36.5489 9.08805L35.1437 13.3837L34.2776 13.032L36.5489 6.2604ZM39.2846 6.21542H40.2234V14.3998H39.2846V10.141H38.2711V9.21685H39.2846V6.21542ZM40.9906 6.2052H41.9657V14.4448H40.9906V6.2052Z" fill="#575756"/>
<path d="M43.9806 7.74894V6.89022H45.8865V6.1051H46.9626V6.89022H48.7776V7.74894H46.799L48.8523 9.85485L48.1961 10.4825L46.4255 8.61788L44.6751 10.6318L43.9988 9.99388L46.0601 7.74894H43.9806ZM50.4755 12.6907C50.4755 12.9667 50.419 13.2284 50.3059 13.4717C50.1929 13.715 50.0435 13.9297 49.8537 14.1137C49.6659 14.2977 49.4418 14.4449 49.1834 14.5533C48.925 14.6596 48.6504 14.7148 48.3577 14.7148C48.0649 14.7148 47.7984 14.6596 47.5359 14.5533C47.2735 14.4449 47.0494 14.2997 46.8616 14.1137C46.6718 13.9297 46.5224 13.715 46.4094 13.4717C46.2963 13.2284 46.2398 12.9687 46.2398 12.6907C46.2398 12.4126 46.2963 12.1529 46.4094 11.9096C46.5224 11.6663 46.6718 11.4517 46.8616 11.2676C47.0494 11.0816 47.2755 10.9364 47.5359 10.8281C47.7984 10.7197 48.071 10.6665 48.3577 10.6665C48.6443 10.6665 48.925 10.7197 49.1834 10.8281C49.4418 10.9364 49.6659 11.0816 49.8537 11.2676C50.0414 11.4517 50.1929 11.6663 50.3059 11.9096C50.419 12.1529 50.4755 12.4126 50.4755 12.6907ZM49.4802 12.6825C49.4802 12.3738 49.3691 12.11 49.1471 11.8872C48.925 11.6663 48.6585 11.5559 48.3496 11.5559C48.0407 11.5559 47.7843 11.6663 47.5642 11.8872C47.3441 12.11 47.2351 12.3738 47.2351 12.6825C47.2351 12.9912 47.3441 13.2631 47.5642 13.4819C47.7823 13.7007 48.0447 13.809 48.3496 13.809C48.6544 13.809 48.925 13.6986 49.1471 13.4819C49.3691 13.2631 49.4802 12.9974 49.4802 12.6825ZM50.1545 10.5929V9.02271H48.7312V8.14558H50.1545V6.20529H51.166V10.5929H50.1545Z" fill="#575756"/>
<path d="M15.2491 9.5461C13.533 8.36434 11.3363 8.84686 10.1835 10.6215C9.2205 12.1039 7.76484 12.2899 7.20156 12.2899C5.36634 12.2899 4.11056 10.9814 3.73908 9.62993C3.73504 9.61562 3.73302 9.6054 3.72898 9.59108C3.72494 9.57473 3.72091 9.56246 3.71687 9.5461C3.56949 8.9818 3.53516 8.71192 3.53516 8.11286C3.53516 4.87835 6.8119 1.27581 11.5322 1.27581C16.2525 1.27581 19.1315 5.00307 19.8442 7.07422C19.832 7.03946 19.8199 7.00266 19.8078 6.96381C18.437 2.91351 14.6434 0 10.1775 0C4.55877 0 0 4.6146 0 10.3087C0 15.3977 3.624 19.7526 8.65116 19.7526C12.6608 19.7526 15.3561 17.477 16.5916 14.3386C17.27 12.6232 16.7895 10.6052 15.2491 9.5461Z" fill="#003863"/>
<path d="M19.9088 7.27453C19.3152 5.25449 16.5271 1.27576 11.5342 1.27576C6.81394 1.27576 3.5372 4.87829 3.5372 8.1128C3.5372 8.71186 3.57152 8.98175 3.71891 9.54605C3.65834 9.29865 3.62402 9.05126 3.62402 8.81C3.62402 5.44055 6.95527 3.10769 10.3794 3.10769C15.0149 3.10769 18.7721 6.91264 18.7721 11.607C18.7721 15.2872 16.6805 18.4706 13.642 19.9999C17.5587 18.5667 20.355 14.7679 20.355 10.3087C20.355 9.25163 20.2157 8.32135 19.9068 7.27453H19.9088Z" fill="#E4032E"/>
</svg>
