<svg width="84" height="20" viewBox="0 0 84 20" fill="none" xmlns="http://www.w3.org/2000/svg">
<path d="M15.4422 9.54523C13.7058 8.36342 11.4793 8.84542 10.3116 10.6222C9.33549 12.1065 7.86327 12.29 7.29253 12.29C5.43511 12.29 4.16255 10.9832 3.78542 9.62993C3.78139 9.61581 3.77937 9.60573 3.77534 9.59161C3.7713 9.57548 3.76727 9.56136 3.76324 9.54523C3.61601 8.98054 3.57971 8.71231 3.57971 8.11133C3.57971 4.87648 6.89927 1.27458 11.6789 1.27458C16.4586 1.27458 19.3748 5.00151 20.0968 7.0727C20.0847 7.0364 20.0726 7.0001 20.0605 6.9638C18.671 2.91419 14.8291 0 10.3076 0C4.61632 0 0 4.6143 0 10.3076C0 15.3958 3.67047 19.7519 8.76072 19.7519C12.8204 19.7519 15.5511 17.475 16.8015 14.339C17.4892 12.6228 17.0011 10.606 15.4422 9.54724V9.54523Z" fill="#003863"/>
<path d="M20.1593 7.27439C19.5583 5.25362 16.7349 1.27661 11.6769 1.27661C6.89524 1.27661 3.5777 4.87851 3.5777 8.11336C3.5777 8.71233 3.614 8.98257 3.76122 9.54726C3.6987 9.30122 3.66643 9.05316 3.66643 8.81115C3.66643 5.44319 7.04044 3.10781 10.5072 3.10781C15.2022 3.10781 19.0058 6.9134 19.0058 11.6063C19.0058 15.2869 16.8882 18.4713 13.8106 20C17.7755 18.5661 20.6091 14.7686 20.6091 10.3076C20.6091 9.25281 20.4679 8.32108 20.1553 7.27439H20.1593Z" fill="#E4032E"/>
<path d="M32.6348 11.5924V14.4643H31.6103V12.4879H26.1893V11.5924H28.9502V10.3824H25.671V9.48695H33.2439V10.3824H29.9647V11.5924H32.6328H32.6348ZM32.6348 6.37512V8.83151H31.6103V7.28064H26.2821V6.37512H32.6348Z" fill="#575756"/>
<path d="M34.6012 10.6789V6.44977H38.8404V10.6789H34.6012ZM34.8412 14.2808V11.5279H35.8576V13.3753H41.5932V14.2808H34.8432H34.8412ZM37.834 7.33512H35.6176V9.80159H37.834V7.33512ZM40.4941 11.4815V6.20776H41.5186V11.4815H40.4941Z" fill="#575756"/>
<path d="M46.0905 10.826V11.9796H45.0741V10.826H42.8295V9.97699H48.3251V10.826H46.0905ZM46.385 9.55145V7.33506H43.3377V6.42954H47.4095V9.55145H46.385ZM44.3723 11.546V13.3933H50.2551V14.2807H43.3478V11.548H44.3723V11.546ZM49.0168 9.25701H47.8169V8.41603H49.0168V6.20972H50.0333V12.0744H49.0168V9.25701Z" fill="#575756"/>
<path d="M55.7528 8.40796C55.7528 8.69232 55.6943 8.95652 55.5773 9.20659C55.4603 9.45667 55.303 9.67044 55.1074 9.84791C54.9098 10.0395 54.6819 10.1887 54.4197 10.2997C54.1575 10.4106 53.8772 10.465 53.5747 10.465C53.2722 10.465 52.9918 10.4106 52.7297 10.2997C52.4675 10.1887 52.2396 10.0375 52.042 9.84791C51.8443 9.67044 51.689 9.45465 51.5761 9.20659C51.4611 8.95652 51.4047 8.69031 51.4047 8.40796C51.4047 8.12562 51.4611 7.84933 51.5761 7.59925C51.689 7.34917 51.8443 7.13338 52.042 6.94784C52.2396 6.75625 52.4675 6.60701 52.7297 6.49609C52.9918 6.38517 53.2722 6.33072 53.5747 6.33072C53.8772 6.33072 54.1575 6.38517 54.4197 6.49609C54.6819 6.60701 54.9098 6.75827 55.1074 6.94784C55.305 7.13137 55.4603 7.34917 55.5773 7.59925C55.6943 7.84933 55.7528 8.11755 55.7528 8.40796ZM51.9492 11.1306H58.5338V14.3715H57.5093V12.0441H51.9492V11.1306ZM54.7565 8.40796C54.7565 8.08125 54.6415 7.80294 54.4096 7.57303C54.1797 7.34312 53.9034 7.22615 53.5827 7.22615C53.2621 7.22615 52.9858 7.34111 52.7518 7.57303C52.5179 7.80294 52.4009 8.08327 52.4009 8.40796C52.4009 8.73266 52.5179 9.0029 52.7518 9.23483C52.9858 9.46473 53.2621 9.58171 53.5827 9.58171C53.9034 9.58171 54.1777 9.46675 54.4096 9.23483C54.6415 9.00492 54.7565 8.72862 54.7565 8.40796ZM57.5073 6.20972H58.5318V10.5961H57.5073V6.20972Z" fill="#575756"/>
<path d="M59.7136 11.9534V11.0479H65.2274V11.9534H62.9182V14.1799H61.9119V11.9534H59.7136ZM64.5982 8.44426C64.5982 8.72862 64.5417 8.99483 64.4267 9.24693C64.3138 9.49902 64.1545 9.71683 63.9508 9.90237C63.7471 10.094 63.5132 10.2432 63.249 10.3541C62.9848 10.465 62.7004 10.5195 62.3999 10.5195C62.0994 10.5195 61.8151 10.465 61.5509 10.3541C61.2867 10.2432 61.0527 10.0919 60.849 9.90237C60.6454 9.71683 60.486 9.49902 60.3691 9.24693C60.2521 8.99483 60.1936 8.72661 60.1936 8.44426C60.1936 8.16192 60.2521 7.89369 60.3691 7.6416C60.486 7.38951 60.6454 7.16767 60.849 6.97608C61.0527 6.78449 61.2867 6.63525 61.5509 6.52433C61.8151 6.41341 62.0994 6.35896 62.3999 6.35896C62.7004 6.35896 62.9848 6.41341 63.249 6.52433C63.5132 6.63525 63.7471 6.7865 63.9508 6.97608C64.1545 7.16767 64.3118 7.38951 64.4267 7.6416C64.5397 7.89369 64.5982 8.16192 64.5982 8.44426ZM63.6201 8.44426C63.6201 8.1115 63.5011 7.82916 63.2591 7.59522C63.0191 7.36127 62.7327 7.2443 62.3999 7.2443C62.0672 7.2443 61.7828 7.36127 61.5448 7.59522C61.3089 7.82916 61.1899 8.1115 61.1899 8.44426C61.1899 8.77703 61.3089 9.05332 61.5448 9.28928C61.7828 9.52524 62.0672 9.64422 62.3999 9.64422C62.7327 9.64422 63.0191 9.52524 63.2591 9.28928C63.499 9.05332 63.6201 8.77098 63.6201 8.44426ZM65.8445 6.20972H66.8609V14.4481H65.8445V6.20972Z" fill="#575756"/>
<path d="M71.5599 10.9551V12.0622H70.5435V10.9551H68.2988V10.106H73.7944V10.9551H71.5599ZM69.8416 11.677V13.3953H75.7245V14.2827H68.8171V11.6791H69.8416V11.677ZM72.9535 7.95414C72.9535 8.20624 72.899 8.44421 72.7921 8.67009C72.6832 8.89395 72.54 9.0936 72.3626 9.26503C72.1851 9.4304 71.9753 9.5635 71.7354 9.66232C71.4954 9.76114 71.2392 9.80955 70.969 9.80955C70.6988 9.80955 70.4426 9.76114 70.2026 9.66232C69.9626 9.5635 69.7509 9.4304 69.5653 9.26503C69.3939 9.0936 69.2527 8.89395 69.1459 8.67009C69.037 8.44421 68.9845 8.20624 68.9845 7.95414C68.9845 7.70205 69.039 7.46408 69.1459 7.24224C69.2527 7.02039 69.3939 6.82477 69.5653 6.65133C69.7509 6.47991 69.9626 6.34479 70.2026 6.25C70.4426 6.15521 70.6988 6.10681 70.969 6.10681C71.2392 6.10681 71.4954 6.15521 71.7354 6.25C71.9753 6.34479 72.1851 6.47991 72.3626 6.65133C72.54 6.82477 72.6832 7.02039 72.7921 7.24224C72.899 7.46408 72.9535 7.70205 72.9535 7.95414ZM71.9854 7.96423C71.9854 7.68794 71.8866 7.45198 71.689 7.25837C71.4913 7.06476 71.2513 6.96796 70.969 6.96796C70.6867 6.96796 70.4446 7.06476 70.249 7.25837C70.0514 7.45198 69.9546 7.68794 69.9546 7.96423C69.9546 8.24052 70.0534 8.47648 70.249 8.67009C70.4467 8.86369 70.6867 8.9605 70.969 8.9605C71.2513 8.9605 71.4913 8.86369 71.689 8.67009C71.8866 8.47648 71.9854 8.24052 71.9854 7.96423ZM74.4882 9.38603H73.3145V8.54505H74.4882V6.20765H75.5046V12.155H74.4882V9.38401V9.38603Z" fill="#575756"/>
<path d="M82.2446 13.6252H76.8418V12.7298H79.0118V11.7053C78.913 11.6811 78.8202 11.6488 78.7355 11.6125C78.4895 11.5137 78.2737 11.3806 78.0881 11.2152C77.9026 11.0438 77.7594 10.8441 77.6545 10.6203C77.5497 10.3944 77.4972 10.1564 77.4972 9.90433C77.4972 9.65224 77.5497 9.41427 77.6545 9.19242C77.7594 8.97058 77.9046 8.77496 78.0881 8.60152C78.2737 8.4301 78.4875 8.29498 78.7295 8.20019C78.9735 8.1054 79.2336 8.057 79.5099 8.057C79.7862 8.057 80.0464 8.1054 80.2864 8.20019C80.5264 8.29498 80.7361 8.4301 80.9136 8.60152C81.0991 8.77496 81.2443 8.97058 81.3512 9.19242C81.4601 9.41427 81.5126 9.65224 81.5126 9.90433C81.5126 10.1564 81.4581 10.3944 81.3512 10.6203C81.2443 10.8441 81.0971 11.0438 80.9136 11.2152C80.7361 11.3806 80.5264 11.5137 80.2864 11.6125C80.1876 11.6549 80.0867 11.6891 79.9819 11.7133V12.7298H82.2446V13.6252ZM78.9372 7.03048V6.1532H80.0464V7.03048H82.051V7.90776H76.9346V7.03048H78.9392H78.9372ZM80.5163 9.89425C80.5163 9.62401 80.4175 9.39006 80.2198 9.19646C80.0222 9.00285 79.7822 8.90605 79.4999 8.90605C79.2175 8.90605 78.9755 9.00285 78.7799 9.19646C78.5822 9.39006 78.4854 9.62401 78.4854 9.89425C78.4854 10.1645 78.5843 10.3984 78.7799 10.5961C78.9775 10.7937 79.2175 10.8905 79.4999 10.8905C79.7822 10.8905 80.0222 10.7917 80.2198 10.5961C80.4175 10.3984 80.5163 10.1645 80.5163 9.89425ZM82.9727 6.20967H83.9891V14.448H82.9727V6.20967Z" fill="#575756"/>
</svg>
