<svg width="79" height="20" viewBox="0 0 79 20" fill="none" xmlns="http://www.w3.org/2000/svg">
<path d="M11.0734 2.67006C11.1115 2.72958 11.1623 2.7806 11.1665 2.84013C11.2215 3.01445 11.3823 3.12074 11.4035 3.29506C11.4119 3.35459 11.4881 3.3801 11.5262 3.40561C11.5685 3.46088 11.5389 3.52465 11.6235 3.60544C11.6616 3.63095 11.632 3.69472 11.6404 3.75425C11.6785 3.77976 11.7208 3.80527 11.7589 3.83078C12.1186 4.39626 12.1524 5.05103 11.7378 5.65903C11.6701 5.72705 11.6066 5.82059 11.5812 5.91413C11.5473 5.94814 11.4754 5.98216 11.4416 6.01617C11.45 6.0757 11.4881 6.10121 11.5304 6.15648C11.3485 6.20325 11.3273 6.35631 11.1919 6.45835C11.1538 6.45835 11.0819 6.46686 11.0438 6.47111C10.9423 6.57315 10.8365 6.61142 10.7307 6.67944C10.6969 6.71346 10.7053 6.80274 10.7095 6.83251C10.5361 6.96856 10.2864 7.0536 10.0241 7.04509C9.99023 7.04509 9.96061 7.14288 9.92676 7.14288C9.74058 7.15989 9.52055 7.15139 9.33438 7.16839C9.25821 7.14713 9.2159 7.09186 9.1355 7.06635C9.06357 7.07485 8.98741 7.07911 8.91124 7.05785C8.79277 6.97707 8.64044 6.96431 8.52196 6.91329C8.4458 6.89203 8.30617 6.96431 8.22577 6.91329C7.97613 6.69645 7.73071 6.47961 7.59531 6.25427C7.50645 6.11396 7.34989 6.06719 7.29912 5.92263C7.29066 5.86311 7.32027 5.76957 7.24411 5.74831C7.09178 5.70154 7.15525 5.60801 7.14679 5.51872C7.10025 5.43368 7.09178 5.37416 7.01139 5.29338C6.96485 5.20834 7.02408 5.08079 6.97754 4.96599C6.97754 4.93623 7.00716 4.90222 7.00293 4.87246C6.94792 4.69813 7.03678 4.51106 7.01985 4.36225C7.01139 4.27296 7.03255 4.14966 7.06217 4.06037C7.15525 3.8733 7.23988 3.65221 7.4049 3.45663C7.4049 3.42686 7.39644 3.36734 7.39221 3.33758C7.42606 3.30356 7.46414 3.29931 7.49376 3.2653C7.553 3.11224 7.61223 2.98468 7.70955 2.85713C7.84072 2.69557 8.04806 2.55526 8.21731 2.38944C8.31886 2.29165 8.4585 2.21512 8.55158 2.05781C8.58543 2.02379 8.70391 2.07481 8.73776 2.0408C8.83931 1.94301 8.98741 1.95576 9.09319 1.88774C9.19897 1.81971 9.17782 1.96852 9.2836 1.93025C9.35553 1.92175 9.38938 1.89199 9.46131 1.85372C9.5671 1.81546 9.68981 1.89199 9.80405 1.90899C9.91406 1.90049 10.0283 1.9175 10.1468 1.99828C10.3076 2.10457 10.6757 2.06631 10.7349 2.27464C10.8238 2.41495 10.9846 2.52124 11.0734 2.66155V2.67006Z" fill="#BD1339"/>
<path d="M17.302 5.01705C17.302 4.92351 17.302 4.86824 17.2639 4.77045C17.2555 4.67691 17.3274 4.57487 17.2936 4.44732C17.2724 4.4133 17.2259 4.37504 17.2301 4.34527C17.2936 4.14969 17.2978 3.97112 17.2809 3.76279C17.2639 3.69901 17.2428 3.665 17.2216 3.63098C17.2259 3.60122 17.2386 3.54595 17.247 3.48642C17.2513 3.30785 17.1962 3.17605 17.1412 3.01448C17.1243 2.95071 17.0778 2.91244 17.0693 2.8189C17.0482 2.78489 17.0016 2.74237 17.0058 2.71261C17.0524 2.45325 16.9297 2.24917 16.8916 2.00257C16.8324 1.72195 16.57 1.54338 16.4854 1.25851C16.4896 1.22875 16.5785 1.24151 16.6039 1.24576C16.8112 1.44134 17.0439 1.67093 17.0989 1.95155C17.137 2.04934 17.1201 2.13437 17.1624 2.2024C17.3401 2.41924 17.3697 2.6956 17.4036 2.97196C17.3993 3.00173 17.4544 2.98472 17.4755 3.01873C17.4713 3.0485 17.4586 3.10377 17.4797 3.13778C17.6151 3.28659 17.5305 3.44816 17.5601 3.60122C17.5771 3.665 17.594 3.69901 17.6151 3.73302C17.6109 3.76279 17.5432 3.83932 17.5348 3.86483C17.6448 4.00939 17.6913 4.19646 17.6617 4.37079C17.7886 4.43031 17.7294 4.59613 17.759 4.71943C17.7802 4.75344 17.8056 4.75769 17.8309 4.7662C17.8648 4.71518 17.9029 4.66416 17.9156 4.60463C17.9325 4.37079 17.941 4.16245 17.8986 3.94561C17.8648 3.84782 17.8521 3.75428 17.9198 3.682C17.869 3.66925 17.8521 3.60547 17.8309 3.57146C17.7379 3.19305 17.6998 2.76788 17.5855 2.38097C17.5855 2.38097 17.6151 2.35971 17.6236 2.32995C17.5855 1.98981 17.3274 1.67093 17.2047 1.33079C17.1836 1.27127 17.0862 1.19474 17.0397 1.13096C17.0397 1.13096 17.0397 1.1012 17.0482 1.07144C17.1793 1.08844 17.2809 1.216 17.3486 1.31379C17.4882 1.50937 17.6448 1.72621 17.6871 1.9473C17.759 2.14288 17.869 2.34696 17.9113 2.53829C17.941 2.66584 18.0298 2.74662 18.0933 2.85292C18.1271 2.95071 18.1102 3.03574 18.1187 3.12928C18.1568 3.35037 18.2202 3.5587 18.2625 3.77979C18.3133 3.94136 18.3387 4.12418 18.2837 4.26024C18.2118 4.51109 18.3768 4.78746 18.4445 5.0128C18.4826 5.11059 18.436 5.22113 18.3937 5.30192C18.3895 5.33168 18.436 5.36994 18.4276 5.39971C18.381 5.51025 18.4191 5.60804 18.3979 5.72284C18.3683 5.7441 18.436 5.82063 18.3979 5.87165C18.3683 5.89716 18.3429 5.88866 18.3091 5.91417C18.2668 5.99495 18.3048 6.09274 18.2879 6.17777C18.2033 6.33934 18.2456 6.55618 18.0891 6.67097C18.0298 6.68798 18.0256 6.71774 17.996 6.739C18.0214 6.74325 18.0425 6.77727 18.0637 6.81553C18.034 6.83679 18.0044 6.83254 17.9748 6.8538C17.9663 6.90907 18.0764 6.98135 18.0975 7.01537C18.0552 7.24496 17.886 7.44479 17.8902 7.7169C17.8775 7.77217 17.8648 7.86146 17.8521 7.91673C17.8013 8.05279 17.6998 8.15058 17.649 8.29089C17.6405 8.34616 17.5305 8.35466 17.5178 8.40994C17.4501 8.48221 17.4544 8.60552 17.4078 8.71606C17.3697 8.76708 17.2936 8.75007 17.2301 8.79684C17.1582 8.89888 17.1666 8.99242 17.1201 9.09872C17.0397 9.23052 16.9466 9.37508 16.8704 9.50688C16.7816 9.69821 16.6335 9.87678 16.4727 10.0213C16.4473 10.0171 16.3881 10.0341 16.3584 10.0554C16.2738 10.2169 16.1807 10.336 16.003 10.4168C15.9776 10.4125 15.9395 10.5358 15.9057 10.5571C15.783 10.6463 15.7153 10.7526 15.5672 10.8377C15.5122 10.8547 15.4826 10.8759 15.4191 10.7739C15.2245 11.1183 14.9664 11.3862 14.6871 11.6242C14.539 11.7093 14.3909 11.7008 14.2936 11.7986C13.972 12.1132 13.4642 12.4491 13.4092 12.4959C13.3838 12.4916 13.2865 12.6362 13.2865 12.6362C13.185 12.6447 13.2442 12.6532 13.1469 12.6362C13.1469 12.6362 13.1427 12.7977 13.0115 12.8232C12.7365 12.8785 12.6645 13.1974 12.6434 13.3292C12.6307 13.3972 12.5884 13.3505 12.5545 13.376C12.5249 13.4015 12.546 13.444 12.5122 13.4695C12.3937 13.5418 12.2879 13.6906 12.1906 13.8054C12.161 13.8309 12.1398 13.7926 12.106 13.8181C12.0764 13.8437 11.9283 14.0265 11.8775 14.188C11.7506 14.4687 11.6152 14.7195 11.4417 14.9151C11.3994 14.9619 11.539 15.1489 11.5305 15.2127C11.4924 15.302 11.4121 15.3148 11.374 15.404C11.3401 15.6209 11.3274 15.8675 11.2893 16.1013C11.2259 16.3267 11.3063 16.4882 11.3359 16.6923C11.3697 16.8624 11.3274 17.0835 11.3359 17.2493C11.3486 17.3811 11.4374 17.5299 11.4247 17.6575C11.429 17.8573 11.3824 17.8318 11.4247 17.9976C11.4205 18.0954 11.3867 18.1932 11.4078 18.257C11.3994 18.3888 11.3782 18.4695 11.374 18.5971C11.3444 18.6269 11.2893 18.6906 11.2893 18.7204C11.2682 19.0478 11.0566 19.3326 10.8366 19.5495C10.697 19.6388 10.5785 19.7748 10.4219 19.7621C10.3415 19.7578 10.0792 19.9236 9.99034 19.9449C9.75761 20.0087 9.57144 20.0129 9.34718 19.9789C9.10176 19.9109 8.90289 19.8514 8.73364 19.5963C8.63209 19.4815 8.4586 19.524 8.39513 19.3497C8.37398 19.2816 8.23435 19.2434 8.20896 19.2093C8.07779 19.0945 8.01009 18.95 7.91277 18.8054C7.8493 18.6311 7.89584 18.5121 7.81545 18.3462C7.73505 18.2442 7.7012 18.1719 7.62081 18.0656C7.51502 17.9296 7.64619 17.734 7.5658 17.5979C7.51079 17.5597 7.45579 17.4916 7.4304 17.4236C7.37962 17.2918 7.39232 17.0962 7.31192 16.9559C7.26961 16.7859 7.295 16.1694 7.32885 16.0035C7.33308 15.9695 7.23999 15.9228 7.24422 15.8887C7.25691 15.6506 7.34154 15.4168 7.32038 15.1702C7.34577 15.0384 7.33308 14.9321 7.45155 14.8173C7.45155 14.8173 7.39655 14.7705 7.40078 14.7365C7.46848 14.5452 7.46848 14.3964 7.50656 14.1965C7.51079 14.1625 7.58272 14.1413 7.58696 14.1115C7.54887 13.967 7.54464 13.6693 7.57003 13.5375C7.58272 13.4695 7.75198 13.3717 7.79429 13.3122C7.79852 13.2782 7.7689 13.1931 7.83237 13.0783C7.8493 13.0486 7.89161 13.0571 7.92546 13.0316C7.92969 12.9976 7.90853 12.9593 7.917 12.9253C7.93392 12.8275 8.09894 12.7552 8.11164 12.6872C8.17934 12.4618 8.28935 12.3683 8.40783 12.1855C8.45014 12.1047 8.46707 12.0197 8.53477 11.9431C8.56439 11.9219 8.58131 11.9431 8.58554 11.9134C8.58977 11.8836 8.57708 11.8198 8.58131 11.7943C8.64901 11.7178 8.73787 11.6498 8.7548 11.5647C8.80134 11.4542 8.83942 11.3776 8.90712 11.3011C9.02983 11.2076 9.15254 11.1183 9.2287 10.9865C9.2964 10.91 9.37257 10.927 9.43604 10.8547C9.53336 10.7569 9.55874 10.6123 9.63068 10.5103C9.79993 10.3105 9.98187 10.1702 10.1638 10.0341C10.3161 9.9193 10.5108 9.87253 10.6589 9.7875C10.8112 9.6727 10.9043 9.45586 11.0524 9.37083C11.1413 9.3028 11.2513 9.2943 11.3444 9.22627C11.4374 9.15824 11.5136 9.02644 11.649 8.99667C11.9537 8.91589 11.7336 9.00093 12.0214 8.88613C12.1991 8.77558 12.1271 8.74582 12.3049 8.63953C12.6011 8.46521 12.7534 8.35891 12.7788 8.36317C12.8084 8.34191 12.838 8.3164 12.8507 8.26112C12.9226 8.15908 13.2992 7.89122 13.3542 7.87422C13.4092 7.85721 13.4769 7.92949 13.5404 7.85721C13.5742 7.80619 13.5065 7.75942 13.5404 7.7084C13.6377 7.61061 13.7308 7.47881 13.8239 7.41078C13.8535 7.38952 13.9297 7.43204 13.9847 7.41503C14.0143 7.39377 14.027 7.33425 14.0566 7.31299C14.0947 7.26197 14.027 7.18544 14.0609 7.13441C14.1032 7.05363 14.1455 6.97285 14.2005 6.95584C14.2893 6.91758 14.4078 6.8538 14.3951 6.79002C14.4163 6.67523 14.4628 6.56468 14.5813 6.50091C14.5855 6.47114 14.594 6.44138 14.5982 6.41587C14.6659 6.33934 14.7294 6.29682 14.7971 6.22029C14.869 6.11825 14.8394 5.9907 14.8817 5.90991C15.0171 5.7611 15.1483 5.64205 15.1821 5.43797C15.1737 5.34443 15.1144 5.21263 15.1568 5.13185C15.1906 5.08083 15.3049 5.04681 15.3175 4.99154C15.3387 4.87674 15.2795 4.74494 15.2752 4.62589C15.2922 4.54085 15.3852 4.46858 15.3726 4.37929C15.3641 4.13694 15.3768 3.90309 15.3429 3.65649C15.4233 3.64374 15.436 3.58847 15.4445 3.52894C15.4233 3.34612 15.3175 3.17605 15.271 2.98472C15.2668 2.86567 15.3641 2.76788 15.3599 2.64883C15.3472 2.55529 15.2625 2.449 15.1652 2.36822C15.0764 2.25767 15.1356 2.09185 15.1018 1.96855C15.0764 1.81549 14.9621 1.69644 14.941 1.51362C14.9325 1.42008 14.8225 1.42858 14.7844 1.33079C14.7548 1.20324 14.7209 1.07994 14.7209 0.926879C14.704 0.863103 14.6236 0.875858 14.5771 0.837592C14.4713 0.663271 14.5094 0.314629 14.2809 0.233846C14.302 0.119049 14.1963 0.0935382 14.1624 0C14.2978 0 14.4247 0.0552726 14.5009 0.225342C14.5221 0.259356 14.5982 0.276363 14.6236 0.284866C14.6913 0.357146 14.6871 0.535719 14.759 0.582488C14.8521 0.663271 14.9917 0.633509 15.0298 0.731299C15.0806 0.892865 15.2033 0.977899 15.2583 1.1097C15.2541 1.13947 15.2668 1.20324 15.2879 1.23726C15.381 1.31804 15.3937 1.40732 15.4572 1.48386C15.6137 1.66668 15.7703 1.85376 15.6984 2.10461C15.6518 2.21515 15.7915 2.18539 15.8338 2.25342C15.9396 2.42774 15.8972 2.65734 16.0326 2.80615C16.0073 3.09952 16.1469 3.36738 16.2357 3.62673C16.0834 3.86058 16.168 4.273 16.2865 4.51109C16.2865 4.51109 16.3711 4.49834 16.3754 4.47283C16.4008 4.33252 16.6589 4.2815 16.6166 4.21347C16.5658 4.05191 16.4854 3.71602 16.4854 3.56721C16.5023 3.32911 16.5108 3.12503 16.4727 2.87843C16.4515 2.84441 16.4304 2.8104 16.4092 2.77638C16.3796 2.64883 16.3458 2.52128 16.3711 2.38097C16.3542 2.3172 16.3077 2.27893 16.2907 2.21515C16.295 2.18539 16.3077 2.13012 16.3119 2.10036C16.3711 2.08335 16.4431 2.13012 16.4939 2.14288C16.5404 2.18114 16.4981 2.26192 16.5192 2.29594C16.6039 2.43199 16.7266 2.49152 16.752 2.64458C16.7477 2.67434 16.735 2.72961 16.7308 2.75938C16.752 2.9422 16.862 3.08676 16.8874 3.23982C16.9001 3.32911 16.8197 3.46091 16.8577 3.56296C16.9762 3.7968 16.9804 4.06891 16.9635 4.33252C16.9424 4.44732 17.0862 4.54085 17.0482 4.61739C17.0058 4.69817 17.0608 4.71092 17.0185 4.79171C17.0143 4.82147 16.9551 4.83848 16.9508 4.86824C17.027 5.03406 16.9128 5.28491 16.8831 5.42947C16.8789 5.45923 16.972 5.48899 16.9931 5.3827C17.0058 5.31892 17.1116 5.31892 17.1709 5.30192C17.2343 5.25515 17.2809 5.1446 17.2766 5.02555L17.302 5.01705ZM17.8606 5.59103C17.8648 5.44647 17.9325 5.34018 17.9071 5.18287C17.8563 5.0213 17.7379 5.18287 17.6532 5.19137C17.6998 5.3827 17.6236 5.51025 17.5644 5.68032C17.5305 5.73134 17.5009 5.8759 17.5855 5.86314C17.7167 5.89291 17.8563 5.76535 17.8606 5.59103ZM17.6405 6.3776C17.6744 6.33084 17.6575 6.2373 17.6109 6.19903C17.539 6.15226 17.4459 6.22454 17.4036 6.30107C17.3613 6.38186 17.3951 6.50941 17.5051 6.50091C17.5305 6.50516 17.6067 6.42863 17.6448 6.3776H17.6405Z" fill="#0087CB"/>
<path d="M16.1087 1.4795C16.2483 1.5858 16.3033 1.76012 16.4134 1.90468L16.4007 1.9642C16.2102 2.13002 16.041 1.85366 15.9902 1.69209C15.9141 1.52627 15.8337 1.36045 15.694 1.23715C15.6983 1.20739 15.7067 1.18188 15.711 1.15212C15.6433 1.07559 15.5544 0.969294 15.6433 0.926777C15.6813 0.875756 15.7448 0.977798 15.8167 1.02457C15.9268 1.16913 15.9479 1.35195 16.1129 1.4795H16.1087Z" fill="#0087CB"/>
<path d="M16.8958 0.74395C16.8958 0.773712 16.8492 0.824733 16.845 0.850244C16.7562 0.765209 16.6631 0.680174 16.5869 0.539867C16.5615 0.531363 16.5107 0.518608 16.4896 0.484594C16.4642 0.476091 16.4684 0.45058 16.4769 0.420818C16.5615 0.412315 16.625 0.488846 16.6969 0.539867C16.7223 0.54837 16.7562 0.527112 16.7815 0.531363C16.8535 0.578133 16.8916 0.650412 16.9 0.74395H16.8958Z" fill="#0087CB"/>
<path d="M5.14119 6.02469C5.16658 6.04595 5.20466 6.07997 5.22158 6.10548C5.2639 6.13524 5.30621 6.13524 5.35275 6.11823C5.39507 6.11823 5.43315 6.23303 5.47969 6.23728C5.54316 6.26704 5.58124 6.37759 5.64471 6.43286C5.68703 6.45837 5.72934 6.50089 5.77165 6.5264C5.83089 6.60293 5.86897 6.67946 5.93244 6.73048C5.97052 6.7815 6.03822 6.76449 6.08477 6.76449C6.16939 6.79426 6.20325 6.91756 6.26248 6.99409C6.28364 6.99409 6.32172 7.07062 6.32172 7.09613C6.36403 7.12164 6.40212 7.17266 6.46559 7.20242C6.48251 7.22793 6.48251 7.2747 6.49944 7.30021C6.65599 7.55532 6.86333 7.71688 6.9945 7.989C6.9945 7.989 7.01143 8.04002 7.01143 8.06127C7.17221 8.21859 7.24415 8.44393 7.38378 8.6225C7.42186 8.69904 7.45571 8.82234 7.49379 8.92013C7.53611 8.97115 7.57419 9.00091 7.6165 9.05193C7.67574 9.15397 7.73075 9.27727 7.74344 9.40057C7.74344 9.44734 7.70959 9.5919 7.62496 9.51112C7.52341 9.40482 7.53188 9.26452 7.43032 9.18373C7.43032 9.15822 7.40494 9.0987 7.38378 9.07319C7.34147 9.02217 7.26953 9.02642 7.25261 8.95414C7.25684 8.88186 7.17645 8.82234 7.13836 8.77557C7.03681 8.62676 6.88449 8.57148 6.76178 8.42267C6.74062 8.42267 6.71523 8.42267 6.69408 8.44393C6.67292 8.4907 6.60522 8.55873 6.66446 8.63526C6.74908 8.68628 6.7914 8.78407 6.89718 8.83934C6.96065 8.89036 6.97757 9.03492 7.01566 9.15822C7.05797 9.20924 7.10028 9.25601 7.16375 9.28577C7.22722 9.3368 7.20183 9.41333 7.26107 9.48986C7.26107 9.51537 7.23568 9.53663 7.23568 9.55789C7.27377 9.63442 7.36262 9.61741 7.42186 9.69394C7.46841 9.65142 7.53188 9.68544 7.56996 9.75347C7.49802 9.82149 7.51918 9.86826 7.48956 9.94054C7.41763 10.0553 7.58265 10.1659 7.68843 10.2212C7.75613 10.2254 7.74344 10.3445 7.80691 10.3997C7.84499 10.4763 7.95501 10.4848 8.01001 10.5868C8.02694 10.6378 7.98462 10.6548 7.95924 10.7016C7.95501 10.7739 8.03963 10.8036 8.08195 10.8334C8.12426 10.8632 8.14118 10.9099 8.15811 10.961C8.09041 10.978 7.96347 10.8887 7.89577 10.8844C7.85345 10.8674 7.77729 10.7739 7.69267 10.7526C7.66305 10.7441 7.64189 10.8164 7.61227 10.8079C7.57419 10.7994 7.53188 10.7909 7.48956 10.7824C7.44302 10.7739 7.333 10.6506 7.28646 10.6463C7.23145 10.6378 7.16375 10.7356 7.11298 10.7271C6.91834 10.6931 6.90987 10.6803 6.8464 10.6548C6.77447 10.6251 6.70254 10.5911 6.63907 10.5528C6.59676 10.5315 6.60945 10.472 6.56714 10.4465C6.52906 10.421 6.4402 10.421 6.40212 10.3955C6.24556 10.2977 6.09746 10.0809 5.96206 10.0086C5.8732 9.9618 5.80127 9.91503 5.69972 9.86826C5.65318 9.8385 5.61509 9.77047 5.55586 9.74921C5.36968 9.68544 5.22158 9.57064 5.01425 9.51112C4.61651 9.39632 4.28646 9.62591 3.96065 9.79598C3.94373 9.79598 3.90988 9.79598 3.89295 9.80449C3.81679 9.86826 3.73216 9.90228 3.656 9.9533C3.55445 10.0341 3.41482 10.0553 3.3048 10.1191C3.27095 10.1404 3.26672 10.2041 3.23287 10.2254C3.18209 10.2552 3.08477 10.2637 3.034 10.2934C2.98745 10.3232 2.98322 10.3785 2.93668 10.4167C2.84359 10.4933 2.75473 10.5528 2.62779 10.6123C2.55586 10.6506 1.95925 10.7526 1.86193 10.7526C1.7096 10.7526 1.59959 10.8802 1.3711 10.8802C1.02413 10.8802 0.67293 10.8717 0.385202 10.6548C0.325963 10.6038 0.313269 10.455 0.270956 10.4295C0.144017 10.3487 0.156711 10.1786 0.122861 10.0553C0.0805477 10.0298 -0.00407837 10.0213 0.000152937 9.94905C0.0466973 9.5919 0.224412 9.26877 0.440209 9.02217C0.490984 8.92863 0.600998 8.89036 0.613692 8.77131C0.613692 8.77131 0.808332 8.4992 0.926809 8.38866C0.952196 8.34189 0.914115 8.26536 0.939503 8.22284C1.11722 7.8742 1.4388 7.6361 1.70537 7.32147C1.7773 7.25344 1.82385 7.16416 1.93809 7.14715C1.98463 7.14715 2.02695 7.15565 2.05234 7.10889C2.10311 6.99409 2.1962 6.93031 2.2639 6.88354C2.51778 6.70922 2.72934 6.44987 3.01707 6.4031C3.06362 6.38184 3.089 6.33507 3.13132 6.31381C3.17786 6.27129 3.26249 6.32231 3.30903 6.30531C3.52483 6.20752 3.71947 5.99918 3.9395 5.96942C3.98604 5.94816 4.01143 5.90139 4.03259 5.90564C4.22723 5.92265 4.45995 5.74833 4.64189 5.93115C4.80691 5.89714 5.05656 5.93115 5.15811 6.02044L5.14119 6.02469ZM6.63907 8.1293C6.63907 8.10379 6.63907 8.08253 6.63907 8.05702C6.55444 8.006 6.51636 7.85719 6.40635 7.82743C6.38519 7.82743 6.33865 7.84869 6.33865 7.8742C6.33442 8.01876 6.39365 8.11655 6.45289 8.23985C6.47828 8.14631 6.54175 8.15056 6.58406 8.22284C6.60522 8.20158 6.63061 8.15481 6.63061 8.1293H6.63907Z" fill="#2E9647"/>
<path d="M27.5122 14.8556L26.5263 15.8887L23.7844 13.2017C23.4247 13.8437 22.9931 14.3879 22.4938 14.8386C21.9945 15.285 21.4952 15.6507 21.0002 15.9313L20.0397 14.8301C20.5813 14.558 21.0425 14.2433 21.4233 13.8819C21.8041 13.5205 22.1172 13.1379 22.3627 12.7425C22.6038 12.3428 22.7816 11.9389 22.8958 11.5222C23.0058 11.1055 23.0651 10.6974 23.0651 10.302V8.40144H24.5799V10.0299C24.5799 10.3487 24.5587 10.6506 24.5206 10.9397C24.4783 11.2288 24.4275 11.5095 24.3641 11.7816L27.5122 14.8641V14.8556ZM30.6476 19.524H29.2131V12.245H26.2258V10.8589H29.2131V7.16418H30.6476V19.5197V19.524Z" fill="#231F20"/>
<path d="M43.6122 14.1244H38.4923V14.8046H41.0311V17.9934H36.127V18.6057H41.3569V19.9917H34.6418V16.6796H39.5332V16.1354H34.5741V14.8046H37.0452V14.1244H32.0311V12.768H43.6122V14.1244ZM40.9084 9.75357C40.9084 10.1447 40.8238 10.4976 40.6588 10.8208C40.4937 11.1439 40.2695 11.4202 39.9902 11.6541C39.7025 11.8794 39.3597 12.058 38.9705 12.1856C38.577 12.3131 38.1538 12.3769 37.6926 12.3769C37.261 12.3769 36.8548 12.3174 36.4698 12.1983C36.0847 12.0793 35.7462 11.9092 35.45 11.6839C35.1623 11.4585 34.9338 11.1821 34.7688 10.8633C34.6038 10.5401 34.5191 10.1787 34.5191 9.77057C34.5191 9.36241 34.5995 8.9925 34.7603 8.66512C34.9211 8.33349 35.1496 8.05287 35.4373 7.81477C35.7166 7.58093 36.0509 7.3981 36.4359 7.27055C36.821 7.143 37.2399 7.07922 37.6926 7.07922C38.1454 7.07922 38.5516 7.143 38.9408 7.27055C39.3344 7.3981 39.6729 7.57668 39.9606 7.81477C40.2483 8.04012 40.4768 8.32073 40.6503 8.64811C40.8195 8.97975 40.9084 9.34965 40.9084 9.75357ZM39.4232 9.73656C39.4232 9.31139 39.254 8.9755 38.9112 8.73315C38.5685 8.48655 38.1623 8.3675 37.6968 8.3675C37.2314 8.3675 36.804 8.48655 36.474 8.7289C36.144 8.967 35.9832 9.30713 35.9832 9.74081C35.9832 10.1745 36.1482 10.4849 36.474 10.7187C36.804 10.9526 37.2102 11.0716 37.6968 11.0716C38.1834 11.0716 38.5685 10.9653 38.9112 10.7485C39.254 10.5316 39.4232 10.1957 39.4232 9.74506V9.73656Z" fill="#231F20"/>
<path d="M55.7772 15.0129H44.2131V13.6438H55.7772V15.0129ZM53.2638 19.9874H51.8167V17.1557H46.6418V15.7697H53.2638V19.9874ZM53.2384 12.9338H46.6969V7.58508H53.1538V8.95414H48.127V9.53663H52.993V10.9227H48.127V11.5605H53.2342V12.9295L53.2384 12.9338Z" fill="#231F20"/>
<path d="M62.2639 13.4823H56.7632V7.83596H58.1934V9.46437H60.8168V7.83596H62.2639V13.4823ZM60.8168 12.1132V10.8377H58.1934V12.1132H60.8168ZM66.3302 19.9874H59.6955V16.5775H64.5192V15.8717H59.6278V14.4984H66.0044V17.9083H61.2103V18.6141H66.3302V19.9832V19.9874ZM66.4402 14.1073H65.0227V12.7892H62.6997V11.4287H65.0227V10.4508H62.6997V9.07747H65.0227V7.16418H66.4402V14.103V14.1073Z" fill="#231F20"/>
<path d="M75.254 14.8981L74.2681 15.9313L71.5389 13.2314C71.1877 13.8819 70.7603 14.4347 70.261 14.8811C69.7617 15.3275 69.254 15.6932 68.742 15.9738L67.7815 14.8726C68.3316 14.575 68.797 14.2433 69.1821 13.8819C69.5629 13.5206 69.876 13.1421 70.1214 12.7552C70.3541 12.3556 70.5276 11.9559 70.6419 11.5477C70.7561 11.1396 70.8111 10.7357 70.8111 10.3403V8.39721H72.3259V10.0681C72.3259 10.387 72.3048 10.6846 72.2667 10.9695C72.2244 11.2544 72.1736 11.5265 72.1101 11.7901L75.2582 14.8981H75.254ZM78.2117 19.524H76.7646V7.16846H78.2117V19.524Z" fill="#231F20"/>
</svg>
