<svg width="30" height="30" viewBox="0 0 30 32" fill="none" xmlns="http://www.w3.org/2000/svg">
<path d="M15.1715 21.1714H20.9572M30.6001 15.6C30.6001 23.8843 23.8844 30.6 15.6001 30.6C7.31583 30.6 0.600098 23.8843 0.600098 15.6C0.600098 7.31573 7.31583 0.600006 15.6001 0.600006C23.8844 0.600006 30.6001 7.31573 30.6001 15.6ZM18.0644 10.5643C18.3201 10.3085 18.667 10.1649 19.0287 10.1649C19.2078 10.1649 19.3851 10.2001 19.5505 10.2687C19.716 10.3372 19.8663 10.4377 19.993 10.5643C20.1196 10.6909 20.22 10.8413 20.2886 11.0067C20.3571 11.1722 20.3924 11.3495 20.3924 11.5286C20.3924 11.7077 20.3571 11.885 20.2886 12.0504C20.22 12.2159 20.1196 12.3662 19.993 12.4929L11.9572 20.5286L9.38581 21.1714L10.0287 18.6L18.0644 10.5643Z" stroke="currentColor" stroke-width="1.2" stroke-linecap="round" stroke-linejoin="round"/>
</svg>
