<svg width="17" height="17" viewBox="0 0 17 17" fill="none" xmlns="http://www.w3.org/2000/svg">
<path d="M14 7.62162C14 9.21567 13.2138 10.6591 12.2359 11.8378C11.1943 13.0935 9.93509 14.0489 9.1769 14.5664C8.76527 14.8474 8.23473 14.8474 7.8231 14.5664C7.06491 14.0489 5.80572 13.0935 4.76406 11.8378C3.78618 10.6591 3 9.21567 3 7.62162C3 4.51689 5.46243 2 8.5 2C11.5376 2 14 4.51689 14 7.62162Z" stroke="#9E9E9E" stroke-width="1.5"/>
<path d="M10.5 7.69985C10.5 8.85965 9.55982 9.79985 8.40002 9.79985C7.24022 9.79985 6.30002 8.85965 6.30002 7.69985C6.30002 6.54006 7.24022 5.59985 8.40002 5.59985C9.55982 5.59985 10.5 6.54006 10.5 7.69985Z" stroke="#9E9E9E" stroke-width="1.4"/>
</svg>
