<svg width="18" height="18" viewBox="0 0 18 18" fill="none" xmlns="http://www.w3.org/2000/svg">
<path d="M13.9998 7.69985C13.9998 9.28777 13.1993 10.7256 12.2037 11.8999C11.133 13.1626 9.83654 14.1205 9.06709 14.6326C8.66 14.9034 8.1396 14.9034 7.73252 14.6326C6.96307 14.1205 5.66664 13.1626 4.59594 11.8999C3.60028 10.7256 2.7998 9.28777 2.7998 7.69985C2.7998 4.60706 5.30701 2.09985 8.3998 2.09985C11.4926 2.09985 13.9998 4.60706 13.9998 7.69985Z" stroke="white" stroke-width="1.5"/>
<path d="M10.4998 7.69985C10.4998 8.85965 9.5596 9.79985 8.3998 9.79985C7.24001 9.79985 6.2998 8.85965 6.2998 7.69985C6.2998 6.54006 7.24001 5.59985 8.3998 5.59985C9.5596 5.59985 10.4998 6.54006 10.4998 7.69985Z" stroke="white" stroke-width="1.4"/>
</svg>
