<svg width="12" height="currentColor" viewBox="0 0 12 12" fill="none" xmlns="http://www.w3.org/2000/svg">
<path d="M10 6.50022C10 9.00022 8.25 10.2502 6.17 10.9752C6.06108 11.0121 5.94277 11.0104 5.835 10.9702C3.75 10.2502 2 9.00022 2 6.50022V3.00022C2 2.86762 2.05268 2.74044 2.14645 2.64667C2.24021 2.5529 2.36739 2.50022 2.5 2.50022C3.5 2.50022 4.75 1.90022 5.62 1.14022C5.72593 1.04972 5.86068 1 6 1C6.13932 1 6.27407 1.04972 6.38 1.14022C7.255 1.90522 8.5 2.50022 9.5 2.50022C9.63261 2.50022 9.75979 2.5529 9.85355 2.64667C9.94732 2.74044 10 2.86762 10 3.00022V6.50022Z" stroke="currentColor" stroke-linecap="round" stroke-linejoin="round"/>
</svg>
