<svg width="21" height="21" viewBox="0 0 21 21" fill="none" xmlns="http://www.w3.org/2000/svg">
<path d="M6.125 2.625H3.5C3.01675 2.625 2.625 3.01675 2.625 3.5V6.125C2.625 6.60825 3.01675 7 3.5 7H6.125C6.60825 7 7 6.60825 7 6.125V3.5C7 3.01675 6.60825 2.625 6.125 2.625Z" stroke="currentColor" stroke-width="1.99997" stroke-linecap="round" stroke-linejoin="round"/>
<path d="M17.4998 2.625H14.8748C14.3915 2.625 13.9998 3.01675 13.9998 3.5V6.125C13.9998 6.60825 14.3915 7 14.8748 7H17.4998C17.983 7 18.3748 6.60825 18.3748 6.125V3.5C18.3748 3.01675 17.983 2.625 17.4998 2.625Z" stroke="currentColor" stroke-width="1.99997" stroke-linecap="round" stroke-linejoin="round"/>
<path d="M6.12494 14H3.49994C3.01669 14 2.62494 14.3918 2.62494 14.875V17.5C2.62494 17.9832 3.01669 18.375 3.49994 18.375H6.12494C6.60819 18.375 6.99994 17.9832 6.99994 17.5V14.875C6.99994 14.3918 6.60819 14 6.12494 14Z" stroke="currentColor" stroke-width="1.99997" stroke-linecap="round" stroke-linejoin="round"/>
<path d="M18.3748 14H15.7498C15.2856 14 14.8405 14.1844 14.5123 14.5126C14.1841 14.8408 13.9998 15.2859 13.9998 15.75V18.375" stroke="currentColor" stroke-width="1.99997" stroke-linecap="round" stroke-linejoin="round"/>
<path d="M18.3747 18.375V18.3833" stroke="currentColor" stroke-width="1.99997" stroke-linecap="round" stroke-linejoin="round"/>
<path d="M10.5 6.125V8.75C10.5 9.21413 10.3156 9.65925 9.98744 9.98744C9.65925 10.3156 9.21413 10.5 8.75 10.5H6.125" stroke="currentColor" stroke-width="1.99997" stroke-linecap="round" stroke-linejoin="round"/>
<path d="M2.625 10.5H2.63333" stroke="currentColor" stroke-width="1.99997" stroke-linecap="round" stroke-linejoin="round"/>
<path d="M10.5 2.625H10.5083" stroke="currentColor" stroke-width="1.99997" stroke-linecap="round" stroke-linejoin="round"/>
<path d="M10.4998 14V14.0083" stroke="currentColor" stroke-width="1.99997" stroke-linecap="round" stroke-linejoin="round"/>
<path d="M18.3747 10.5V10.5083" stroke="currentColor" stroke-width="1.99997" stroke-linecap="round" stroke-linejoin="round"/>
<path d="M10.4998 18.375V17.5" stroke="currentColor" stroke-width="1.99997" stroke-linecap="round" stroke-linejoin="round"/>
</svg>
