<svg width="18" height="18" viewBox="0 0 19 22" fill="none" xmlns="http://www.w3.org/2000/svg">
<path d="M14.505 0.750076H4.995C3.836 0.750076 3.257 0.750076 2.789 0.913076C2.34793 1.0698 1.94885 1.32594 1.62267 1.66166C1.29649 1.99738 1.05195 2.40367 0.908 2.84908C0.75 3.33108 0.75 3.92708 0.75 5.12008V19.1241C0.75 19.9821 1.735 20.4381 2.358 19.8681C2.53279 19.7066 2.76202 19.6169 3 19.6169C3.23798 19.6169 3.46721 19.7066 3.642 19.8681L4.125 20.3101C4.43121 20.5932 4.83293 20.7505 5.25 20.7505C5.66707 20.7505 6.06879 20.5932 6.375 20.3101C6.68121 20.0269 7.08293 19.8696 7.5 19.8696C7.91707 19.8696 8.31879 20.0269 8.625 20.3101C8.93121 20.5932 9.33293 20.7505 9.75 20.7505C10.1671 20.7505 10.5688 20.5932 10.875 20.3101C11.1812 20.0269 11.5829 19.8696 12 19.8696C12.4171 19.8696 12.8188 20.0269 13.125 20.3101C13.4312 20.5932 13.8329 20.7505 14.25 20.7505C14.6671 20.7505 15.0688 20.5932 15.375 20.3101L15.858 19.8681C16.0328 19.7066 16.262 19.6169 16.5 19.6169C16.738 19.6169 16.9672 19.7066 17.142 19.8681C17.765 20.4381 18.75 19.9821 18.75 19.1241V5.12008C18.75 3.92708 18.75 3.33008 18.592 2.85008C18.4482 2.40449 18.2037 1.998 17.8775 1.6621C17.5513 1.32619 17.1522 1.0699 16.711 0.913076C16.243 0.750076 15.664 0.750076 14.505 0.750076Z" stroke="#141414" stroke-width="1.5"/>
<path d="M7.25 9.15008L8.679 10.7501L12.25 6.75008" stroke="#141414" stroke-width="1.5" stroke-linecap="round" stroke-linejoin="round"/>
<path d="M5.25 14.2501H14.25" stroke="#141414" stroke-width="1.5" stroke-linecap="round"/>
</svg>
