<svg width="22" height="20" viewBox="0 0 22 20" fill="none" xmlns="http://www.w3.org/2000/svg">
<path fill-rule="evenodd" clip-rule="evenodd" d="M2.11374 0.133988C0.87124 -0.418174 -0.405986 0.835117 0.12256 2.08783L3.3861 9.8228C3.41756 9.89737 3.41756 9.98148 3.3861 10.056L0.12256 17.791C-0.405986 19.0437 0.87124 20.297 2.11374 19.7449L21.0938 11.3102C22.2816 10.7823 22.2816 9.09654 21.0938 8.56868L2.11374 0.133988ZM8.16211 9.03926C7.66505 9.03926 7.26211 9.4422 7.26211 9.93926C7.26211 10.4363 7.66505 10.8393 8.16211 10.8393L11.7621 10.8393C12.2592 10.8393 12.6621 10.4363 12.6621 9.93926C12.6621 9.4422 12.2592 9.03926 11.7621 9.03926L8.16211 9.03926Z" fill="#E0E0E0"/>
</svg>
