<svg width="20" height="20" viewBox="0 0 20 20" fill="none" xmlns="http://www.w3.org/2000/svg">
<path d="M7.05 7.05V6.3C6.63579 6.3 6.3 6.63579 6.3 7.05H7.05ZM7.13965 7.05H7.88965C7.88965 6.63579 7.55386 6.3 7.13965 6.3V7.05ZM12.45 7.05V6.3C12.0358 6.3 11.7 6.63579 11.7 7.05H12.45ZM12.5297 7.05H13.2797C13.2797 6.63579 12.9439 6.3 12.5297 6.3V7.05ZM7.13965 7.12207V7.87207C7.55386 7.87207 7.88965 7.53628 7.88965 7.12207H7.13965ZM7.05 7.12207H6.3C6.3 7.53628 6.63579 7.87207 7.05 7.87207V7.12207ZM12.5297 7.12207V7.87207C12.9439 7.87207 13.2797 7.53628 13.2797 7.12207H12.5297ZM12.45 7.12207H11.7C11.7 7.53628 12.0358 7.87207 12.45 7.87207V7.12207ZM7.26767 12.092C7.04965 11.7398 6.58741 11.631 6.23521 11.849C5.88301 12.067 5.77423 12.5293 5.99224 12.8815L6.62995 12.4867L7.26767 12.092ZM13.5078 12.8815C13.7258 12.5293 13.617 12.067 13.2648 11.849C12.9126 11.631 12.4503 11.7398 12.2323 12.092L12.87 12.4867L13.5078 12.8815ZM18.75 9.75H18C18 14.3064 14.3064 18 9.75 18V18.75V19.5C15.1348 19.5 19.5 15.1348 19.5 9.75H18.75ZM9.75 18.75V18C5.19365 18 1.5 14.3064 1.5 9.75H0.75H0C0 15.1348 4.36522 19.5 9.75 19.5V18.75ZM0.75 9.75H1.5C1.5 5.19365 5.19365 1.5 9.75 1.5V0.75V0C4.36522 0 0 4.36522 0 9.75H0.75ZM9.75 0.75V1.5C14.3064 1.5 18 5.19365 18 9.75H18.75H19.5C19.5 4.36522 15.1348 0 9.75 0V0.75ZM7.05 7.05V7.8H7.13965V7.05V6.3H7.05V7.05ZM12.45 7.05V7.8H12.5297V7.05V6.3H12.45V7.05ZM7.13965 7.05H6.38965V7.12207H7.13965H7.88965V7.05H7.13965ZM7.13965 7.12207V6.37207H7.05V7.12207V7.87207H7.13965V7.12207ZM7.05 7.12207H7.8V7.05H7.05H6.3V7.12207H7.05ZM12.5297 7.05H11.7797V7.12207H12.5297H13.2797V7.05H12.5297ZM12.5297 7.12207V6.37207H12.45V7.12207V7.87207H12.5297V7.12207ZM12.45 7.12207H13.2V7.05H12.45H11.7V7.12207H12.45ZM9.75 14.25V13.5C8.71533 13.5 7.7965 12.9463 7.26767 12.092L6.62995 12.4867L5.99224 12.8815C6.7758 14.1473 8.16126 15 9.75 15V14.25ZM12.87 12.4867L12.2323 12.092C11.7035 12.9463 10.7847 13.5 9.75 13.5V14.25V15C11.3387 15 12.7242 14.1473 13.5078 12.8815L12.87 12.4867Z" fill="black"/>
</svg>
