<svg width="16" height="currentColor" viewBox="0 0 16 16" fill="none" xmlns="http://www.w3.org/2000/svg">
<path d="M6.66669 7.33301V11.333" stroke="currentColor" stroke-width="1.33333" stroke-linecap="round" stroke-linejoin="round"/>
<path d="M9.33331 7.33301V11.333" stroke="currentColor" stroke-width="1.33333" stroke-linecap="round" stroke-linejoin="round"/>
<path d="M12.6666 4V13.3333C12.6666 13.687 12.5262 14.0261 12.2761 14.2761C12.0261 14.5262 11.6869 14.6667 11.3333 14.6667H4.66665C4.31302 14.6667 3.97389 14.5262 3.72384 14.2761C3.47379 14.0261 3.33331 13.687 3.33331 13.3333V4" stroke="currentColor" stroke-width="1.33333" stroke-linecap="round" stroke-linejoin="round"/>
<path d="M2 4H14" stroke="currentColor" stroke-width="1.33333" stroke-linecap="round" stroke-linejoin="round"/>
<path d="M5.33331 3.99967V2.66634C5.33331 2.31272 5.47379 1.97358 5.72384 1.72353C5.97389 1.47348 6.31302 1.33301 6.66665 1.33301H9.33331C9.68694 1.33301 10.0261 1.47348 10.2761 1.72353C10.5262 1.97358 10.6666 2.31272 10.6666 2.66634V3.99967" stroke="currentColor" stroke-width="1.33333" stroke-linecap="round" stroke-linejoin="round"/>
</svg>
