<svg width="20" height="20" color="currentColor" viewBox="0 0 20 20" fill="none" xmlns="http://www.w3.org/2000/svg">
<path d="M1.41789 16.6054C1.02737 16.9959 1.02737 17.6291 1.41789 18.0196C1.80842 18.4101 2.44158 18.4101 2.83211 18.0196L2.125 17.3125L1.41789 16.6054ZM6.625 12.8125L7.33211 12.1054C6.94158 11.7149 6.30842 11.7149 5.91789 12.1054L6.625 12.8125ZM8.875 15.0625L8.16789 15.7696C8.55842 16.1601 9.19158 16.1601 9.58211 15.7696L8.875 15.0625ZM13.9375 10L14.6446 9.29289C14.2541 8.90237 13.6209 8.90237 13.2304 9.29289L13.9375 10ZM17.7304 15.2071C18.1209 15.5976 18.7541 15.5976 19.1446 15.2071C19.5351 14.8166 19.5351 14.1834 19.1446 13.7929L18.4375 14.5L17.7304 15.2071ZM2.125 17.3125L2.83211 18.0196L7.33211 13.5196L6.625 12.8125L5.91789 12.1054L1.41789 16.6054L2.125 17.3125ZM6.625 12.8125L5.91789 13.5196L8.16789 15.7696L8.875 15.0625L9.58211 14.3554L7.33211 12.1054L6.625 12.8125ZM8.875 15.0625L9.58211 15.7696L14.6446 10.7071L13.9375 10L13.2304 9.29289L8.16789 14.3554L8.875 15.0625ZM13.9375 10L13.2304 10.7071L17.7304 15.2071L18.4375 14.5L19.1446 13.7929L14.6446 9.29289L13.9375 10ZM4.375 1V2H15.625V1V0H4.375V1ZM19 4.375H18V15.625H19H20V4.375H19ZM15.625 19V18H4.375V19V20H15.625V19ZM1 15.625H2V4.375H1H0V15.625H1ZM4.375 19V18C3.06332 18 2 16.9367 2 15.625H1H0C0 18.0412 1.95875 20 4.375 20V19ZM19 15.625H18C18 16.9367 16.9367 18 15.625 18V19V20C18.0412 20 20 18.0412 20 15.625H19ZM15.625 1V2C16.9367 2 18 3.06332 18 4.375H19H20C20 1.95875 18.0412 0 15.625 0V1ZM4.375 1V0C1.95875 0 0 1.95875 0 4.375H1H2C2 3.06332 3.06332 2 4.375 2V1ZM7.75 6.0625H6.75C6.75 6.4422 6.4422 6.75 6.0625 6.75V7.75V8.75C7.54677 8.75 8.75 7.54677 8.75 6.0625H7.75ZM6.0625 7.75V6.75C5.6828 6.75 5.375 6.4422 5.375 6.0625H4.375H3.375C3.375 7.54677 4.57823 8.75 6.0625 8.75V7.75ZM4.375 6.0625H5.375C5.375 5.6828 5.6828 5.375 6.0625 5.375V4.375V3.375C4.57823 3.375 3.375 4.57823 3.375 6.0625H4.375ZM6.0625 4.375V5.375C6.4422 5.375 6.75 5.6828 6.75 6.0625H7.75H8.75C8.75 4.57823 7.54677 3.375 6.0625 3.375V4.375Z" fill="white"/>
</svg>
