<svg width="360" height="39" viewBox="0 0 360 39" fill="none" xmlns="http://www.w3.org/2000/svg">
<rect width="360" height="39" fill="#EDD5F2"/>
<path d="M70 27.26H88V9.26H70V27.26ZM101.334 11.6914V23.7852H99.3828V20.6562H97.0273V19.0918H99.3828V17.3164H97.0273V15.7344H99.3828V11.6914H101.334ZM96.9395 13.4492V15.0137H88.0625V13.4492H91.6133V11.6738H93.5645V13.4492H96.9395ZM92.5625 15.6641C94.7246 15.6641 96.2715 16.9297 96.2891 18.7578C96.2715 20.5859 94.7246 21.8516 92.5625 21.8516C90.418 21.8516 88.8711 20.5859 88.8887 18.7578C88.8711 16.9297 90.418 15.6641 92.5625 15.6641ZM92.5625 17.1934C91.4727 17.2109 90.6992 17.791 90.7168 18.7578C90.6992 19.7598 91.4727 20.3398 92.5625 20.3398C93.6523 20.3398 94.4434 19.7598 94.4434 18.7578C94.4434 17.791 93.6523 17.2109 92.5625 17.1934ZM101.686 25.666V27.248H90.8574V22.748H92.8438V25.666H101.686ZM116.865 11.6738V27.5645H115.002V19.5137H113.367V26.791H111.521V11.9551H113.367V17.8965H115.002V11.6738H116.865ZM108.023 15.7344C108.023 18.5645 108.973 21.166 111.328 22.3789L110.186 23.873C108.674 23.0645 107.681 21.667 107.127 19.9355C106.582 21.9131 105.589 23.5039 104.016 24.4355L102.82 22.9414C105.176 21.6055 106.125 18.8281 106.125 15.7344V14.9785H103.295V13.4141H110.625V14.9785H108.023V15.7344ZM130.814 11.6738V18.0195H133.012V19.6367H130.814V27.5645H128.846V11.6738H130.814ZM122.904 13.3438C122.887 17.5098 122.307 21.0254 119.441 24.1191L117.912 23.0117C120.153 20.6387 120.883 18.125 121.041 14.9434H118.545V13.3438H122.904ZM127.299 13.3438C127.281 17.6152 126.842 21.6934 123.977 25.1387L122.412 24.0664C124.68 21.3682 125.312 18.3887 125.453 14.9434H123.432V13.3438H127.299ZM139.191 16.1914C139.191 18.793 140.721 21.5352 143.287 22.6074L142.215 24.1543C140.334 23.3457 138.963 21.6758 138.242 19.6543C137.504 21.834 136.115 23.6621 134.252 24.541L133.127 23.0117C135.641 21.8516 137.205 18.8984 137.205 16.1914V14.8555H133.707V13.2383H142.672V14.8555H139.191V16.1914ZM146.416 11.6738V27.5645H144.447V11.6738H146.416ZM163.135 13.2734V26H161.096L155.066 17.2988H154.961V26H152.676V13.2734H154.75L160.744 21.9746H160.867V13.2734H163.135ZM175.449 13.2734V26H173.41L167.381 17.2988H167.275V26H164.99V13.2734H167.064L173.059 21.9746H173.182V13.2734H175.449ZM189.961 11.6738V21.0254H188.01V18.8281H184.811V20.0586H177.34V12.8691H184.811V14.0996H188.01V11.6738H189.961ZM179.291 14.416V18.4941H182.877V14.416H179.291ZM184.582 21.4473C187.957 21.4473 190.014 22.5723 190.014 24.5059C190.014 26.4395 187.957 27.5469 184.582 27.5469C181.225 27.5469 179.168 26.4395 179.186 24.5059C179.168 22.5723 181.225 21.4473 184.582 21.4473ZM184.582 22.9414C182.367 22.9414 181.119 23.4863 181.119 24.5059C181.119 25.4902 182.367 26.0352 184.582 26.0352C186.797 26.0352 188.062 25.4902 188.062 24.5059C188.062 23.4863 186.797 22.9414 184.582 22.9414ZM184.811 17.2461H188.01V15.6465H184.811V17.2461ZM204.93 11.6738V27.582H202.961V11.6738H204.93ZM196.369 12.834C198.76 12.834 200.5 15.0137 200.518 18.4414C200.5 21.9043 198.76 24.0664 196.369 24.0664C193.961 24.0664 192.221 21.9043 192.221 18.4414C192.221 15.0137 193.961 12.834 196.369 12.834ZM196.369 14.5918C195.016 14.5918 194.102 16.0156 194.102 18.4414C194.102 20.8848 195.016 22.3086 196.369 22.3086C197.705 22.3086 198.619 20.8848 198.619 18.4414C198.619 16.0156 197.705 14.5918 196.369 14.5918ZM216.252 14.9434C216.252 16.666 217.535 18.3535 220.031 19.0391L219.135 20.5508C217.307 20.0586 216.006 18.9863 215.303 17.6152C214.6 19.127 213.272 20.2959 211.383 20.832L210.451 19.3203C212.965 18.6172 214.301 16.8418 214.301 14.9434V14.9082H210.979V13.3613H214.301V11.6035H216.27V13.3613H219.574V14.9082H216.252V14.9434ZM223.072 11.6738V15.5059H225.287V17.123H223.072V21.0254H221.121V11.6738H223.072ZM223.072 21.6934V27.3711H212.807V21.6934H223.072ZM214.74 23.2402V25.7891H221.139V23.2402H214.74ZM238.041 11.6738V17.8789H240.396V19.5137H238.041V27.5293H236.09V11.6738H238.041ZM233.84 13.3262C233.84 18.002 231.906 22.0977 226.615 24.6992L225.508 23.1875C229.375 21.2627 231.467 18.5557 231.871 14.9434H226.369V13.3262H233.84ZM254.24 11.6914V21.4824H252.377V17.457H250.865V21.2891H249.037V11.9199H250.865V15.8574H252.377V11.6914H254.24ZM248.475 13.3086V14.8555H240.564V13.3086H243.57V11.7617H245.504V13.3086H248.475ZM244.537 15.4531C246.559 15.4707 247.982 16.5605 248 18.2129C247.982 19.8477 246.559 20.9727 244.537 20.9727C242.551 20.9727 241.109 19.8477 241.127 18.2129C241.109 16.5605 242.551 15.4707 244.537 15.4531ZM244.537 16.877C243.553 16.877 242.867 17.3516 242.867 18.2129C242.867 19.0391 243.535 19.5488 244.537 19.5488C245.539 19.5488 246.225 19.0391 246.225 18.2129C246.225 17.3516 245.539 16.877 244.537 16.877ZM246.576 22.3613C246.576 23.5918 247.165 24.8574 248.492 25.6484C249.837 24.8047 250.461 23.4688 250.479 22.3613V21.9746H252.412V22.3613C252.412 23.873 253.414 25.332 255.488 25.8945L254.574 27.3711C253.019 26.8789 251.981 25.8945 251.428 24.6641C250.927 25.877 249.995 26.958 248.527 27.5117C247.033 26.9844 246.093 25.9648 245.592 24.752C245.012 25.9121 243.975 26.8701 242.498 27.3711L241.584 25.8945C243.623 25.2793 244.643 23.7852 244.643 22.3613V21.9746H246.576V22.3613ZM260.051 12.834C262.204 12.834 263.795 14.627 264.076 17.5273H267.1V11.6738H269.033V27.582H267.1V19.1094H264.094C263.883 22.1768 262.266 24.0664 260.051 24.0664C257.66 24.0664 255.973 21.9043 255.973 18.4414C255.973 15.0137 257.66 12.834 260.051 12.834ZM260.051 14.5918C258.732 14.5918 257.836 16.0156 257.854 18.4414C257.836 20.8848 258.732 22.3086 260.051 22.3086C261.369 22.3086 262.248 20.8848 262.266 18.4414C262.248 16.0156 261.369 14.5918 260.051 14.5918ZM285.285 24.0312V25.6309H270.766V24.0312H274.123V20.0059C272.857 19.2852 272.093 18.1514 272.102 16.7363C272.084 14.2051 274.58 12.5352 277.99 12.5352C281.418 12.5352 283.914 14.2051 283.914 16.7363C283.914 18.125 283.176 19.2412 281.945 19.9707V24.0312H285.285ZM277.99 14.082C275.617 14.082 274 15.084 274.018 16.7363C274 18.3711 275.617 19.3906 277.99 19.3906C280.363 19.3906 281.998 18.3711 281.998 16.7363C281.998 15.084 280.363 14.082 277.99 14.082ZM276.057 24.0312H279.959V20.709C279.353 20.8496 278.693 20.9199 277.99 20.9199C277.305 20.9199 276.654 20.8496 276.057 20.7266V24.0312ZM289.092 13.2734L288.898 22.2559H286.912L286.701 13.2734H289.092ZM287.914 26.1406C287.158 26.1406 286.543 25.5254 286.543 24.7695C286.543 24.0312 287.158 23.416 287.914 23.416C288.635 23.416 289.268 24.0312 289.268 24.7695C289.268 25.5254 288.635 26.1406 287.914 26.1406Z" fill="#642C8D"/>
</svg>
