<svg xmlns="http://www.w3.org/2000/svg" width="18" height="18" viewBox="0 0 18 18" fill="none">
  <path
    d="M13.9998 7.69991C13.9998 9.28783 13.1993 10.7257 12.2037 11.8999C11.133 13.1627 9.83654 14.1206 9.06709 14.6326C8.66 14.9035 8.1396 14.9035 7.73252 14.6326C6.96307 14.1206 5.66664 13.1627 4.59594 11.8999C3.60028 10.7257 2.7998 9.28783 2.7998 7.69991C2.7998 4.60712 5.30701 2.09991 8.3998 2.09991C11.4926 2.09991 13.9998 4.60712 13.9998 7.69991Z"
    stroke="currentColor"
    stroke-width="1.5"
  />
  <path
    d="M10.4998 7.69991C10.4998 8.85971 9.5596 9.79991 8.3998 9.79991C7.24001 9.79991 6.2998 8.85971 6.2998 7.69991C6.2998 6.54012 7.24001 5.59991 8.3998 5.59991C9.5596 5.59991 10.4998 6.54012 10.4998 7.69991Z"
    stroke="currentColor"
    stroke-width="1.4"
  />
</svg>
